# xmcd
#
# Track frame offsets:
#	150
#	8962
#	36199
#	61151
#	81738
#	103081
#	126089
#	145551
#	162805
#	193103
#	218352
#	243123
#	297161
#
# Disc length: 4052 seconds
#
# Revision: 12
# Processed by: cddbd v1.5.2PL0 Copyright (c) Steve Scherf et al.
# Submitted via: Jack! The Knife 20 Magnifico
#
DISCID=af0fd20d
DTITLE=Jupiter - Classical Element
DYEAR=2013
DGENRE=Metal
TTITLE0=Introduction
TTITLE1=Blessing Of The Future
TTITLE2=Decadence
TTITLE3=Rhythmos
TTITLE4=Scarlet
TTITLE5=Nostalgie
TTITLE6=Heaven's Atlas
TTITLE7=Allegory Cave
TTITLE8=Symmetry Breaking
TTITLE9=Forever With You
TTITLE10=Atmosphere
TTITLE11=Classical Element
TTITLE12=Conclusion
EXTD=
EXTT0=
EXTT1=
EXTT2=
EXTT3=
EXTT4=
EXTT5=
EXTT6=
EXTT7=
EXTT8=
EXTT9=
EXTT10=
EXTT11=
EXTT12=
PLAYORDER=
